<svg id="Layer_1" data-name="Layer 1" xmlns="http://www.w3.org/2000/svg" viewBox="0 0 731.28 206.63"><path d="M6895.37,6900.18c-11,1.44-9.26,17.72-8.33,25.38,2.33,19.25,8.48,38.12,14.89,56.34a614.57,614.57,0,0,0,25.86,62.44c4.07,8.48,8.36,16.88,13.09,25,5.51,9.47,11.65,20.58,24.29,19.47,15.86-1.38,27.8-16.06,33.59-29.71,7.45-17.59,6.9-37.14,6.31-55.86l-2.95.39c4.36,17.3,8.18,34.86,13.32,51.95,3.12,10.4,7.66,25.87,18.74,30.52,13.61,5.71,27.64-10,34.21-19.86,9.33-14,14.77-31.39,18.82-47.59a180.58,180.58,0,0,0,5.4-53.54c-.53-10.3-.93-20.38.58-30.61a62.81,62.81,0,0,0,.67-12.48c-.49-9.44-4.26-20.18-15.41-20.15-7.11,0-13.27,4.42-17.43,9.92a26.58,26.58,0,0,0-4.67,9.4c-.88,3.48-.53,7-.45,10.59a523,523,0,0,1-1.47,55c-1.44,17.14-3.39,35.43-10.44,51.32l2.8.76a156.89,156.89,0,0,0-6.33-39.25c-3-10.36-7.34-23.82-17.94-28.73-10.8-5-27.31-4.48-37,2.86-10.12,7.67-14,21.18-15.92,33.15a200.71,200.71,0,0,0-1.95,21.2c-.27,5.42-.21,11-1.29,16.37h2.89c-6.64-22.31-15.27-44.1-23.74-65.76-4.77-12.2-9.81-24.29-14.37-36.56-3.53-9.49-7.12-19.11-12.23-27.89-3.87-6.67-10.13-15.72-19-14.61l.4,2.94c3-.83,6.35-1,9.43-1.36,7.79-1,15.59-2,23.39-2.87q35.85-4.19,71.8-7.37c27.46-2.42,55-4.44,82.54-5.32,11.92-.38,23.86-.56,35.78-.2,10.93.33,21.88.44,32.79.84,1.36,0,4.17-.27,5.36.53.61.41,1.39,2.77,1.75,3.45.66,1.25,1.31,2.5,2,3.76,1.26,2.48,2.48,5,3.66,7.49a249.72,249.72,0,0,1,11.54,29.24,279,279,0,0,1,11.71,56.08,480.77,480.77,0,0,1,2.3,53.66c0,8.79-.21,17.57-.39,26.34-.09,4.61-.12,9.37-2.57,13.46-3.06,5.14-10.44,7.09-12.78.16-2.78-8.21-3.35-17.73-4.55-26.28-1.33-9.5-2.57-19-4.26-28.47-.77-4.33-1.64-8.64-2.69-12.91-.81-3.34-1.4-7.33-3.85-9.93-3.28-3.49-8.26-3.16-12.54-2.19-3.84.88-4.6,4.2-5.3,7.77a105.51,105.51,0,0,0-1.65,16.17c-.72,17-1.56,34.71-10.69,49.71-2.25,3.68-5.5,9.22-10.41,9.31-3.83.06-6.32-3.46-7.79-6.57-3.44-7.24-2.87-15.79-2.87-23.6a483.61,483.61,0,0,1,3.35-54.2c2-18.16,4.86-36.25,8.58-54.14,3.24-15.59,5.18-36.56,20.88-44.86,7-3.71,15.29-3.67,23-3.89l-1.06-2.56c-8,10.24-12.61,23-16.53,35.28-2.22,6.95-4.16,14-5.9,21.07-1.37,5.56-3.25,11.43-3.25,17.21,0,4.64,1.24,10.41,6,12.46,5.07,2.2,9.52-1.14,11.1-5.95,2.36-7.16-.16-15.24-1.7-22.29a58.86,58.86,0,0,1-.67-16.92,97.42,97.42,0,0,1,4.15-21.8c1.89-6,4.41-12.39,8.95-16.94l-1.45.38c7.45,2.69,15,5.14,22.58,7.46,11.62,3.54,23.79,7.4,36,8.24,7.21.49,14.32-2.07,21.08-4.29,5-1.62,9.88-3.4,14.87-4.93,3.91-1.2,8-2.65,12.16-2.83,6.21-.27,12.59.64,18.71,1.58s12.56,1.92,18.36,4.19c5.64,2.21,7.8,7.43,3.28,12.06-5.75,5.87-15.15,8.29-23,9.4-7.34,1-14.73.13-22.05,1.42-6.2,1.09-12.53,3.15-17.73,6.77-4.71,3.28-8.35,7.93-9.11,13.75a18.1,18.1,0,0,0,7.68,17.59c7.87,5.13,18.24,3.24,27.06,3.22a53.89,53.89,0,0,1,26.23,6.6,61.11,61.11,0,0,1,30.27,40.75c2.92,14.45,3.43,31.59-5.93,43.89-4.15,5.44-10.51,11.12-16.85,13.81-3.41,1.45-7.43,2-11,2.7-12.1,2.48-24.3,4.53-36.51,6.36-10.59,1.59-22.22,3.7-29.13-6.95a30.66,30.66,0,0,1-4.07-10.62c-.48-2.35-1-5-.47-7.4.88-4.16,4.59-4.95,8.24-5.26,5.3-.45,10.65-.47,16-.73,12.77-.63,27-.92,39-5.95,12.41-5.21,11.08-19.13,5.81-29.49A43.55,43.55,0,0,0,7284.3,7001c-6.93-4.53-15.43-4.91-23.45-5.07-9.2-.18-18.72.15-26.79-4.94a42.45,42.45,0,0,1-15-17c-6.81-13.62-7.28-30.94.33-44.34,9.43-16.58,29.16-23.55,47.05-26.08,16.14-2.28,32.79-1.67,49-1.15,17.56.56,35.07,2.48,52.62,2.86,21.5.47,42.95-1.66,64.44-1.88,13.27-.13,33.65-.84,38.3,15.15,1.55,5.36,2,11.92-2.43,16-6.49,5.95-15.92,5.64-24.05,4.86-8.45-.81-18-1.83-25.23,3.61-6.26,4.7-8.34,12.54-8.9,20-.75,10,.34,20.21,1,30.16.61,9.17,1.38,18.32,1.85,27.49a262.29,262.29,0,0,1,.11,26.75q-.36,7.21-1.18,14.38c-.62,5.51-.87,11.63-2.73,16.89s-6.89,7.09-12,5.11c-5.25-2-7.87-7.21-9.28-12.35-2.88-10.46-3.67-21.84-4.63-32.61a298.94,298.94,0,0,1-1.18-31.67c.17-10.56.44-21.42,2.2-31.84s7.39-32.62-9.53-33.58c-7.4-.42-15.1,3.45-22.39,1.62-7.61-1.9-17.75-7.07-20.17-15.15-3.95-13.15,8.31-20.61,19.17-23s21.86-1.86,32.83-2.15c9.92-.27,19.76-.58,29.68-.18,11.27.45,22.51,1.38,33.76,2.18s22.28,1.48,33.45,1.45c8.62,0,17.66.05,26-2.13,10.48-2.72,21.7-3.17,32.48-3.23,12.66-.06,25.61.73,37.92,3.88,7.28,1.86,19.46,5.46,20.64,14.45,1.75,13.38-12.29,18.4-22.94,20.28-13.73,2.43-28.08,1.74-41.89.34-.87-.09-1.4.77-1.5,1.5a134.48,134.48,0,0,0,0,33.9c.27,2.06.33,5.31,1.83,7,3.22,3.55,8.55-.9,11.79-1.86,14.29-4.26,29.7-6.2,44.35-2.5,3,.76,6.74,1.59,9,4,3.21,3.52.81,8.22-1.81,11.26-4.38,5.07-10.92,8.56-17.17,10.74-14,4.9-29.37,3.94-43.95,2.95a1.5,1.5,0,0,0-1.45,1.89c3.32,10.8-1.85,23,2.69,33.58,2.41,5.64,7.89,7.24,13.67,7.09,8.87-.22,17.55-2.56,26.3-3.68,13.27-1.69,36.55.38,37.56,18.21.43,7.46-6.63,11.06-12.28,14.13-7.88,4.28-16.17,6-25.05,6.77-14.25,1.21-29.53,2.07-43.36-2.26-6.46-2-12.56-5.44-16.83-10.78-5.61-7-6.87-16-7.5-24.71-1.14-15.51-2.32-31-3.79-46.48-1.36-14.27-2.16-28.59-3.5-42.86-1.71-18.22-7.12-51,17.65-55.76,1.92-.38,1.07-3.17-.8-2.9-16.2,2.35-32,5.56-48.49,4.9-19.79-.79-39.59-2.93-59.33-4.45-40.8-3.13-81.6-6.15-122.42-8.83-41.14-2.7-82.3-5.07-123.5-6.74-41.63-1.69-83-2.18-124.62.67-48.7,3.35-97.13,9.63-145.58,15.36-1.9.23-1.92,3.23,0,3,43.36-5.13,86.69-10.69,130.23-14.21,21.76-1.75,43.57-3,65.41-3.38,20.62-.36,41.23.3,61.84,1.06,82.24,3,164.36,8.89,246.4,15.14,22.2,1.69,44.4,3.72,66.63,5.12a144.1,144.1,0,0,0,26.27-.51c9.36-1.12,18.63-2.88,28-4.23l-.8-2.9c-23.53,4.56-22.47,33.11-20.59,51.59,1.38,13.51,2.13,27.08,3.37,40.61,1.45,15.95,3,31.89,4.13,47.88.61,9,.71,18.47,4.24,26.94a32.11,32.11,0,0,0,12.78,14.88c12.21,7.6,27.9,8.11,41.84,7.59,16.44-.6,33.08-2.22,46.57-12.62,11.32-8.73,5-23.68-6-29.47-7.49-4-16.16-4.85-24.49-4.18-10.81.87-21.71,4.72-32.6,4.09-9.8-.57-10.21-9.75-10.18-17.53,0-6.86,1.08-14.25-1-20.92L7536,7010c13.4.91,27.24,1.71,40.38-1.73a52.15,52.15,0,0,0,18-8.46c4-3,8.31-7.2,9-12.41,1.81-13.07-20.23-14.17-28.65-14.3a93.79,93.79,0,0,0-22.76,2.65,64.23,64.23,0,0,0-10.12,2.88c-2,.83-4.64,3.35-6.08,1-.95-1.57-.87-4.78-1.05-6.5-.33-3.17-.52-6.35-.63-9.53a138.57,138.57,0,0,1,.86-22l-1.5,1.5c14.87,1.51,30.4,2.19,45.11-.92,10.89-2.3,22.77-7.92,22.78-20.63,0-9.27-8-14.27-15.8-17.22-11.86-4.46-25.08-5.64-37.65-6.06a172.79,172.79,0,0,0-36.49,2.16c-2.18.39-4.31.91-6.45,1.47-4.79,1.27-10.11,1.23-15.05,1.43a340.94,340.94,0,0,1-35.45-.81c-23.15-1.51-46-3.32-69.23-2.49-11.33.4-22.68-.18-33.85,2.15-10.34,2.15-21.13,7.49-22.46,19.12-.85,7.49,2.42,13.54,8.35,18s13.87,8.05,21.53,7.29c7-.69,18.36-5.23,23.15,2.15,4.53,7,.94,17.82-.35,25.32-1.76,10.23-2.12,20.82-2.35,31.18a301.48,301.48,0,0,0,1.14,33.6c1,10.86,1.85,22.29,4.59,32.87,2,7.72,6.91,15.24,15.58,15.87,10,.73,12.17-8.95,13.3-16.83a249.09,249.09,0,0,0,2.6-31.1c.33-19.5-1.94-38.92-2.94-58.37-.5-9.71-2-21.23,2.68-30.21,5.45-10.45,17.51-9.68,27.58-8.71,8.14.79,16.45,1,23.72-3.42,5.76-3.52,7.82-8.78,7.25-15.31-1-11.76-8.64-19.29-20.06-21.84-10.4-2.32-21.58-1.5-32.15-1.16-11.28.36-22.54,1.08-33.82,1.47-19.94.69-39.6-1.14-59.48-2.12-17.76-.86-35.72-1.58-53.47-.36-17.94,1.23-37.15,5.58-50.68,18.18-22.41,20.84-17.68,64.54,11.11,77.8,8.15,3.75,17.57,3.15,26.32,3.38,9.73.26,18.33,1.81,25.44,8.91,6,6,11.19,14.52,11.75,23.18.46,7.2-2.86,11.59-9.36,13.95-13.28,4.82-28.51,4.84-42.47,5.41-5.48.23-13.23-.65-17.84,2.75-6.28,4.62-3,15.67-.45,21.51,2.78,6.44,7.89,11.5,14.8,13.25,4.33,1.09,8.32.67,12.65.09,12.47-1.65,24.91-3.78,37.28-6.12,5-.95,10.12-1.88,15.07-3.22,5.12-1.4,9.58-4.86,13.6-8.22,11.74-9.78,16-23.38,15.41-38.33-.73-17.7-6.13-34.11-18.74-47a62.54,62.54,0,0,0-20.92-14.12c-8.84-3.6-17.81-4.26-27.26-3.9-9.73.38-22.74.35-25.64-11.33-2-8,2.16-14.77,8.88-18.84,14.18-8.58,30.48-4.25,45.72-8.6,6.43-1.83,14.18-4.89,18-10.76,3-4.57,1.48-9.62-2.76-12.78s-10.15-3.94-15-4.9a155.15,155.15,0,0,0-21.13-2.81c-7.6-.46-14.31,1.45-21.54,3.8-5.38,1.75-10.7,3.69-16.12,5.33-4.11,1.24-8.52,2.75-12.85,2.88-5.7.18-11.51-1.17-17-2.43-6.9-1.58-13.72-3.51-20.48-5.56-7.84-2.38-15.63-4.91-23.34-7.68a1.48,1.48,0,0,0-1.46.39c-6.82,6.84-9.88,17.25-11.87,26.43-2.15,9.93-3.4,20.74-1.6,30.82,1.24,6.89,4.27,14.55,2.12,21.57-1.14,3.73-4.76,6.65-8.4,3.7-2.27-1.84-2.82-5.37-2.92-8.08-.2-5.34,1.55-10.76,2.79-15.9,1.49-6.15,3.13-12.28,5-18.34,4-13.08,8.52-27.17,17-38.08a1.52,1.52,0,0,0-1.06-2.56c-7.83.23-16.07.28-23.3,3.68s-12.55,9.72-15.66,17c-3.38,7.94-4.87,16.64-6.71,25q-2.88,13.11-5.06,26.35c-3.16,18.81-5.5,37.78-6.88,56.8-.67,9.28-1.11,18.58-1.2,27.89-.07,7.76-.65,16.17,1.5,23.72,1.51,5.32,4.83,12,11,12.71,7.94.92,13.08-8.37,16.13-14.3,7.92-15.4,8.29-32.47,9.19-49.34.3-5.64.34-12.08,2.41-17.4,1.52-3.88,9.48-3.16,11.88-.55,2.61,2.83,3.06,8.36,3.88,12,1.15,5.15,2.08,10.36,2.92,15.58,1.58,9.88,2.81,19.81,4.29,29.71.7,4.69,1.45,9.38,2.36,14,.69,3.52,1.31,7.55,4.26,9.95,6,4.89,13.61-.69,16.13-6.49,3.32-7.66,2.09-17.36,2.22-25.54.15-9.21.23-18.43.1-27.64-.57-39.33-5.76-78.52-20.84-115.11q-2.65-6.47-5.66-12.77-1.8-3.78-3.72-7.5c-1-1.91-2-5.27-3.67-6.69-1-.88-2.56-.94-3.83-1.07-3.14-.32-6.33-.3-9.49-.31-11.34-.06-22.64-.74-34-.89-27.68-.35-55.39,1.32-83,3.37-43.57,3.24-87.33,7.23-130.58,13.52a23.44,23.44,0,0,0-3,.49c-1.57.44-1.33,3.16.4,2.95,8.14-1,13.64,8.15,17,14.19,4.84,8.62,8.29,17.95,11.71,27.19,9,24.24,19.1,48.05,27.93,72.36,3.47,9.55,6.89,19.14,9.79,28.87.4,1.34,2.59,1.52,2.89,0,1.87-9.23,1.3-19,2.14-28.34,1.06-11.94,3.09-25,10.34-35,7.87-10.76,22.84-13.17,35.19-9.89,11.87,3.14,16.47,14.93,19.84,25.64a151.49,151.49,0,0,1,7,41.16c0,1.37,2.16,2.2,2.8.76,5.3-12,7.59-25.11,9.27-38a415,415,0,0,0,3.1-47q.18-10.51,0-21a80.35,80.35,0,0,1-.13-9.18,22.29,22.29,0,0,1,5.22-11.59c4.31-5.27,11.67-9.89,18.67-7.23,4.63,1.75,6.62,6.6,7.53,11.12,2.14,10.61-1.15,21.32-1.21,31.94-.06,9.55,1,19.07,1,28.61a152.29,152.29,0,0,1-2.22,24,204.61,204.61,0,0,1-14.5,49.28c-3.12,7-6.68,13.82-11.61,19.75s-11.3,12-19,13.57c-14.62,2.94-20.85-17.74-24.06-28.22-5.3-17.35-9.13-35.21-13.57-52.79a1.5,1.5,0,0,0-2.94.4c.52,16.53,1.12,33.61-4.12,49.53-4.29,13-13.13,26.41-26.46,31.49-8.4,3.21-16,1.37-21.38-5.93a115.35,115.35,0,0,1-6.64-10.5c-4.28-7.35-8.18-14.92-11.91-22.57a607.27,607.27,0,0,1-24.14-56.94c-6.48-17.64-12.48-35.71-16-54.21-1.35-7-2.55-14.47-1.8-21.65.37-3.53,1.48-8.73,5.76-9.29,1.88-.24,1.91-3.25,0-3Z" transform="translate(-6886.34 -6882.28)"/></svg>